<?xml version="1.0" encoding="utf-8"?>
<!-- Generator: Adobe Illustrator 24.3.0, SVG Export Plug-In . SVG Version: 6.00 Build 0)  -->
<svg version="1.1" id="레이어_1" xmlns="http://www.w3.org/2000/svg" xmlns:xlink="http://www.w3.org/1999/xlink" x="0px"
	 y="0px" viewBox="0 0 47.21 44" style="enable-background:new 0 0 47.21 44;" xml:space="preserve">
<style type="text/css">
	.st0{fill:#FFFFFF;}
</style>
<g>
	<circle class="st0" cx="4.5" cy="22" r="4.5"/>
	<circle class="st0" cx="8.43" cy="32.72" r="3.46"/>
	<circle class="st0" cx="15.94" cy="39.5" r="2.77"/>
	<circle class="st0" cx="8.43" cy="11.29" r="3.46"/>
	<circle class="st0" cx="15.96" cy="4.52" r="2.77"/>
	<path class="st0" d="M25.21,0c-0.01,0-0.03,0-0.04,0h-0.01c-0.01,0-0.01,0-0.02,0c-1.9,0.01-3.44,1.55-3.44,3.46
		s1.55,3.46,3.46,3.46c0.02,0,0.04-0.01,0.06-0.01v0.01c8.33,0,15.08,6.75,15.08,15.08s-6.75,15.08-15.08,15.08v0.01
		c-0.02,0-0.04-0.01-0.06-0.01c-1.91,0-3.46,1.55-3.46,3.46s1.54,3.45,3.44,3.46c0.01,0,0.01,0,0.02,0h0.01c0.01,0,0.03,0,0.04,0
		c12.15,0,22-9.85,22-22S37.36,0,25.21,0z"/>
</g>
</svg>
