<svg width="24" height="24" viewBox="0 0 24 24" fill="none" xmlns="http://www.w3.org/2000/svg">
<mask id="mask0" mask-type="alpha" maskUnits="userSpaceOnUse" x="4" y="5" width="17" height="14">
<path fill-rule="evenodd" clip-rule="evenodd" d="M4 6C4 5.44772 4.44772 5 5 5L20 5C20.5523 5 21 5.44772 21 6C21 6.55228 20.5523 7 20 7L5 7C4.44772 7 4 6.55228 4 6ZM4 12C4 11.4477 4.44772 11 5 11L20 11C20.5523 11 21 11.4477 21 12C21 12.5523 20.5523 13 20 13L5 13C4.44772 13 4 12.5523 4 12ZM5 17C4.44772 17 4 17.4477 4 18C4 18.5523 4.44772 19 5 19H20C20.5523 19 21 18.5523 21 18C21 17.4477 20.5523 17 20 17H5Z" fill="#222222"/>
</mask>
<g mask="url(#mask0)">
<path d="M1 0L25 0L25 24L1 24L1 0Z" fill="#4B514F"/>
</g>
</svg>
